<svg id="Layer_1" data-name="Layer 1" xmlns="http://www.w3.org/2000/svg" viewBox="0 0 215.35 186.59"><path d="M45.43.65c.67,3.18,1.66,6.1,1.85,9.07.54,8.39,1.17,16.8,1,25.19C48,52,47.24,69,46.65,86.07s-1.17,34.12-1.76,51.18c-.53,15.24-1.78,30.4-5,45.34-.29,1.36-.52,2.72-.77,4H64.4c-.41-2.41-.81-4.85-1.23-7.3-2.15-12.62-4-25.3-3.84-38.14.21-17.42.66-34.84,1.07-52.26.48-19.84,1-39.69,1.55-59.54,0-.86,0-1.72,0-3.05.47.57.58.65.61.75,6.3,20.74,15.18,40.43,24.32,60,9.81,21,19.85,42,29.75,63a2.18,2.18,0,0,0,2.39,1.49c4.49-.1,9-.09,13.47,0a2.24,2.24,0,0,0,2.49-1.37c4.3-8.83,8.69-17.62,13-26.45a5.06,5.06,0,0,0,.45-2.21c-.11-9.67-.27-19.33-.42-29a4.77,4.77,0,0,0-.15-.78c-6.1,13-12.13,25.83-18.33,39.06-.49-.87-.71-1.2-.88-1.56-4-8.71-8.12-17.38-12-26.13-8.42-18.74-17-37.43-25.08-56.29C85.22,32.09,79.41,17.19,73.47,2.35,72.87.86,72.13.68,70.73.72,63.92.89,57.12,1,50.31,1,48.72,1,47.14.78,45.43.65ZM149.94,29.27l.35,0c0,.73,0,1.46,0,2.2q.21,27.92.44,55.83c.15,16.65.22,33.31.53,50a203.53,203.53,0,0,1-3.18,40.5c-.5,2.76-.92,5.54-1.35,8.17h29.41c-.08-.59-.16-1.17-.25-1.75-2.15-13.77-3.76-27.59-3.78-41.55Q172,105,172,67.43c0-10.9-.33-21.81-.14-32.71.16-8.4.83-16.79,1.42-25.17.21-3.11.85-6.2,1.32-9.48a15.21,15.21,0,0,0-1.67,0,107.9,107.9,0,0,1-24.3,0,2.05,2.05,0,0,0-2.48,1.55q-15.8,37.86-31.69,75.68c-.93,2.23-2.64,4.48-2.59,6.69s1.84,4.39,2.91,6.56c1.48,3,3,6,4.76,9.46Zm65.41,157.31c-.08-.61-.14-1.24-.24-1.87-2-12.18-3.61-24.41-3.7-36.74q-.41-57.79-.34-115.59c0-7.85,1-15.71,1.64-23.56.22-2.67.74-5.32,1.12-8a3.52,3.52,0,0,0-.72-.13,136,136,0,0,1-25.92.06,2.14,2.14,0,0,0-1.57,1.18q-5.2,12.36-10.25,24.78a8.63,8.63,0,0,0-.6,3.1c-.08,10.61-.1,21.22-.13,31.83,0,.4.09.8.13,1.21h.31l14.07-33.19a1.47,1.47,0,0,1,.39,1.13c.29,33.72.45,67.45.93,101.17.22,16-.35,31.87-3.33,47.6-.44,2.35-.82,4.72-1.21,7ZM6.25,0c0,.32-.11.45-.08.55,2.61,8.18,3.15,16.64,3,25.11-.34,18-.95,36-1.52,54C7.1,96.55,6.41,113.43,5.88,130.3,5.3,148.68,4.23,167,0,185a4.12,4.12,0,0,0,0,1H25.11c-.08-.56-.14-1.14-.24-1.72-3.28-17.92-5.42-36-4.93-54.22q1.27-48,2.65-96c.07-2.65.21-5.29.31-7.94a404.89,404.89,0,0,0,20,49.31,15.61,15.61,0,0,0,.27-2.6c.62-14.26,1.25-28.52,1.81-42.78a8.14,8.14,0,0,0-.61-3.26C41,18.32,37.51,9.89,34.16,1.41,33.65.12,32.91,0,31.73.06,26.17.31,20.61.57,15.05.62,12.16.64,9.27.23,6.25,0ZM63.87,73.39a5,5,0,0,0-.17.7Q63.36,96,63,118a4.34,4.34,0,0,0,.4,1.87q7.08,15,14.26,30a2.13,2.13,0,0,0,1.57,1q7.26.12,14.53,0a2.37,2.37,0,0,0,1.75-1q4.34-8.34,8.47-16.8a3.32,3.32,0,0,0,0-2.42c-.76-1.92-1.74-3.75-2.63-5.62l-4.21-8.88-7,14Z"/><path d="M45.43.65c1.71.13,3.29.35,4.88.34C57.12,1,63.92.89,70.73.72c1.4,0,2.14.14,2.74,1.63,5.94,14.84,11.75,29.74,18.07,44.42,8.13,18.86,16.66,37.55,25.08,56.29,3.93,8.75,8,17.42,12,26.13.17.36.39.69.88,1.56,6.2-13.23,12.23-26.07,18.33-39.06a4.77,4.77,0,0,1,.15.78c.15,9.66.31,19.32.42,29a5.06,5.06,0,0,1-.45,2.21c-4.32,8.83-8.71,17.62-13,26.45a2.24,2.24,0,0,1-2.49,1.37c-4.49-.07-9-.08-13.47,0a2.18,2.18,0,0,1-2.39-1.49c-9.9-21-19.94-41.92-29.75-63-9.14-19.59-18-39.28-24.32-60,0-.1-.14-.18-.61-.75,0,1.33,0,2.19,0,3.05-.51,19.85-1.07,39.7-1.55,59.54-.41,17.42-.86,34.84-1.07,52.26C59.17,154,61,166.67,63.17,179.29c.42,2.45.82,4.89,1.23,7.3H39.14c.25-1.28.48-2.64.77-4,3.2-14.94,4.45-30.1,5-45.34q.88-25.59,1.76-51.18C47.24,69,48,52,48.31,34.91c.14-8.39-.49-16.8-1-25.19C47.09,6.75,46.1,3.83,45.43.65Z"/><path d="M149.94,29.27,119.57,100c-1.77-3.51-3.28-6.47-4.76-9.46-1.07-2.17-2.86-4.35-2.91-6.56s1.66-4.46,2.59-6.69Q130.36,39.45,146.18,1.6A2.05,2.05,0,0,1,148.66.05a107.9,107.9,0,0,0,24.3,0,15.21,15.21,0,0,1,1.67,0c-.47,3.28-1.11,6.37-1.32,9.48-.59,8.38-1.26,16.77-1.42,25.17-.19,10.9.12,21.81.14,32.71q.08,37.6.08,75.22c0,14,1.63,27.78,3.78,41.55.09.58.17,1.16.25,1.75H146.73c.43-2.63.85-5.41,1.35-8.17a203.53,203.53,0,0,0,3.18-40.5c-.31-16.65-.38-33.31-.53-50q-.25-27.91-.44-55.83c0-.74,0-1.47,0-2.2Z"/><path d="M215.35,186.58H185.93c.39-2.28.77-4.65,1.21-7,3-15.73,3.55-31.61,3.33-47.6-.48-33.72-.64-67.45-.93-101.17a1.47,1.47,0,0,0-.39-1.13L175.08,62.87h-.31c0-.41-.13-.81-.13-1.21,0-10.61.05-21.22.13-31.83a8.63,8.63,0,0,1,.6-3.1q5-12.42,10.25-24.78A2.14,2.14,0,0,1,187.19.76,136,136,0,0,0,213.11.7a3.52,3.52,0,0,1,.72.13c-.38,2.67-.9,5.32-1.12,8-.64,7.85-1.63,15.71-1.64,23.56Q211,90.17,211.41,148c.09,12.33,1.73,24.56,3.7,36.74C215.21,185.34,215.27,186,215.35,186.58Z"/><path d="M6.25,0c3,.23,5.91.64,8.8.62C20.61.57,26.17.31,31.73.06c1.18,0,1.92.06,2.43,1.35C37.51,9.89,41,18.32,44.34,26.79A8.14,8.14,0,0,1,45,30.05c-.56,14.26-1.19,28.52-1.81,42.78a15.61,15.61,0,0,1-.27,2.6,404.89,404.89,0,0,1-20-49.31c-.1,2.65-.24,5.29-.31,7.94q-1.34,48-2.65,96c-.49,18.26,1.65,36.3,4.93,54.22.1.58.16,1.16.24,1.72H0a4.12,4.12,0,0,1,0-1c4.19-18,5.26-36.29,5.84-54.67.53-16.87,1.22-33.75,1.76-50.63.57-18,1.18-36,1.52-54,.16-8.47-.38-16.93-3-25.11C6.14.45,6.2.32,6.25,0Z"/><path d="M63.87,73.39,90.08,130l7-14,4.21,8.88c.89,1.87,1.87,3.7,2.63,5.62a3.32,3.32,0,0,1,0,2.42q-4.12,8.46-8.47,16.8a2.37,2.37,0,0,1-1.75,1q-7.26.12-14.53,0a2.13,2.13,0,0,1-1.57-1q-7.2-15-14.26-30A4.34,4.34,0,0,1,63,118q.31-21.95.68-43.89A5,5,0,0,1,63.87,73.39Z"/></svg>